<svg id="brush" xmlns="http://www.w3.org/2000/svg" width="41.86" height="45" viewBox="0 0 41.86 45">
  <path id="Path_5" data-name="Path 5" d="M97.13,55.821c.164.18.331.357.5.53,7.071,7.081,19.458,6.2,27.613-1.967a23.225,23.225,0,0,0,5.982-10.127,19.326,19.326,0,0,0,.035-10.653,4.67,4.67,0,0,0-7.554-2.179l-4.784,4.184a5.1,5.1,0,0,1-6.95-7.446l3.148-3.152a1.735,1.735,0,0,0,.355-1.994,1.709,1.709,0,0,0-1.563-1.026c-.049,0-.1,0-.152.006A22.487,22.487,0,0,0,99.6,28.7,24.09,24.09,0,0,0,97.13,31.6Zm20.656-15.452a5.517,5.517,0,1,1,0,7.8A5.528,5.528,0,0,1,117.786,40.369Z" transform="translate(-90.136 -20.065)" fill="#ad7226"/>
  <path id="Path_6" data-name="Path 6" d="M345.256,243.813a2.88,2.88,0,1,0,2.036-.843A2.883,2.883,0,0,0,345.256,243.813Z" transform="translate(-315.756 -221.646)" fill="#ad7226"/>
  <path id="Path_7" data-name="Path 7" d="M29.19,223.514v23.694a1.663,1.663,0,0,0,3.325,0V223.514H29.19Z" transform="translate(-28.2 -203.871)" fill="#ad7226"/>
  <path id="Path_8" data-name="Path 8" d="M29.19,125.443h3.325v5.966H29.19Z" transform="translate(-28.2 -114.433)" fill="#ad7226"/>
  <path id="Path_9" data-name="Path 9" d="M18.417,8.365h4.262A7.612,7.612,0,0,0,20.893.142a.493.493,0,0,0-.691,0,7.612,7.612,0,0,0-1.785,8.224Z" transform="translate(-17.895 0)" fill="#ad7226"/>
</svg>
